<?xml version="1.0" encoding="UTF-8" standalone="no"?>
<svg
   xmlns:dc="http://purl.org/dc/elements/1.1/"
   xmlns:cc="http://creativecommons.org/ns#"
   xmlns:rdf="http://www.w3.org/1999/02/22-rdf-syntax-ns#"
   xmlns:svg="http://www.w3.org/2000/svg"
   xmlns="http://www.w3.org/2000/svg"
   xmlns:sodipodi="http://sodipodi.sourceforge.net/DTD/sodipodi-0.dtd"
   xmlns:inkscape="http://www.inkscape.org/namespaces/inkscape"
   inkscape:version="1.0 (4035a4f, 2020-05-01)"
   sodipodi:docname="clock.svg"
   id="svg843"
   version="1.1"
   fill="#000000"
   width="24px"
   viewBox="0 0 24 24"
   height="24px"
   enable-background="new 0 0 24 24">
  <metadata
     id="metadata849">
    <rdf:RDF>
      <cc:Work
         rdf:about="">
        <dc:format>image/svg+xml</dc:format>
        <dc:type
           rdf:resource="http://purl.org/dc/dcmitype/StillImage" />
      </cc:Work>
    </rdf:RDF>
  </metadata>
  <defs
     id="defs847" />
  <sodipodi:namedview
     inkscape:current-layer="svg843"
     inkscape:window-maximized="0"
     inkscape:window-y="25"
     inkscape:window-x="0"
     inkscape:cy="12.951724"
     inkscape:cx="12.703448"
     inkscape:zoom="24.166667"
     showgrid="false"
     id="namedview845"
     inkscape:window-height="768"
     inkscape:window-width="1333"
     inkscape:pageshadow="2"
     inkscape:pageopacity="0"
     guidetolerance="10"
     gridtolerance="10"
     objecttolerance="10"
     borderopacity="1"
     bordercolor="#666666"
     pagecolor="#ffffff" />
  <g
     id="g835">
    <rect
       id="rect833"
       width="24"
       height="24"
       fill="none" />
  </g>
  <g
     inkscape:export-ydpi="600"
     inkscape:export-xdpi="600"
     style="fill:#32fbe2;fill-opacity:1"
     id="g841">
    <g
       style="fill:#32fbe2;fill-opacity:1"
       id="g839">
      <path
         style="fill:#32fbe2;fill-opacity:1"
         id="path837"
         d="M11,8v5l4.25,2.52l0.77-1.28l-3.52-2.09V8H11z M21,10V3l-2.64,2.64C16.74,4.01,14.49,3,12,3c-4.97,0-9,4.03-9,9 s4.03,9,9,9s9-4.03,9-9h-2c0,3.86-3.14,7-7,7s-7-3.14-7-7s3.14-7,7-7c1.93,0,3.68,0.79,4.95,2.05L14,10H21z" />
    </g>
  </g>
</svg>
